<svg xmlns="http://www.w3.org/2000/svg" width="16.5" height="14.527" viewBox="0 0 16.5 14.527"><defs><style>.a{fill:none;stroke:#7b46e4;stroke-linecap:round;stroke-miterlimit:10;stroke-width:1.5px;}</style></defs><path class="a" d="M14.924,6.32,8.743.076a.253.253,0,0,0-.433.18V3.572a.253.253,0,0,1-.284.253,7.117,7.117,0,0,0-.794-.044A7,7,0,0,0,0,10.517v2.072a.253.253,0,0,0,.438.175A6.676,6.676,0,0,0,.8,12.1,6,6,0,0,1,6.249,8.591a5.9,5.9,0,0,1,1.791.287s.27.112.27.258v3.609a.253.253,0,0,0,.433.18L14.924,6.68A.251.251,0,0,0,14.924,6.32Z" transform="translate(0.75 0.763)"/></svg>