<svg xmlns="http://www.w3.org/2000/svg" width="30.25" height="31.173" viewBox="0 0 30.25 31.173"><defs><style>.a,.b{fill:none;stroke:#1f1f60;stroke-linecap:round;stroke-miterlimit:10;}.a{stroke-width:1.5px;}.b{stroke-width:1.5px;}</style></defs><g transform="translate(0 0.719)"><path class="a" d="M2.21,6.991C.82,6.3.01,5.481,0,4.6-.01,2.1,6.41.041,14.35,0s14.39,1.95,14.4,4.45-6.41,4.56-14.35,4.6A37.676,37.676,0,0,1,5.39,8.1" transform="translate(0.75 10.339)"/><path class="a" d="M8.05,3.557a38.306,38.306,0,0,0-4.71,7.61c-3.42,7.16-4.37,13.85-2.12,14.92s6.86-3.86,10.28-11.02S15.87,1.227,13.62.147c-.82-.39-1.94.01-3.2,1.01" transform="translate(7.71 1.753)"/><path class="a" d="M3.114.784A1.689,1.689,0,0,0,0,1.814v.05a1.816,1.816,0,0,0,.25.73A1.692,1.692,0,0,0,3.114.784Z" transform="translate(2.836 16.286)"/><path class="a" d="M.554,2.941a2.047,2.047,0,0,1-.3-.35A1.556,1.556,0,0,1,0,1.861v-.05A1.692,1.692,0,0,1,2.934.541" transform="translate(15.206 2.369)"/><path class="a" d="M2.37,0a1.077,1.077,0,0,1,.18.24,1.685,1.685,0,0,1-.52,2.33A1.7,1.7,0,0,1,0,2.4" transform="translate(15.76 2.91)"/><ellipse class="b" cx="4.52" cy="14.38" rx="4.52" ry="14.38" transform="translate(3.577 5.185) rotate(-32.582)"/></g></svg>