<svg xmlns="http://www.w3.org/2000/svg" xmlns:xlink="http://www.w3.org/1999/xlink" width="27" height="27" viewBox="0 0 27 27"><defs><style>.a{fill:none;}.b{clip-path:url(#a);}.c{fill:#fff;}</style><clipPath id="a"><path class="a" d="M0,0H27V26H0Z" transform="translate(0 0.5)"/></clipPath></defs><rect class="a" width="27" height="27"/><path class="a" d="M0,0H27V26H0Z" transform="translate(0 0.5)"/><g class="b"><path class="c" d="M11.5,23a11.5,11.5,0,1,1,11.324-9.493l-.013.075-1.444,1.589-5.98,6.116-1.471,1.457-.077.015A11.532,11.532,0,0,1,11.5,23Zm0-21.537A10.017,10.017,0,0,0,2.167,15.169l0,.008A9.883,9.883,0,0,0,2.755,16.4l.01.016a10.13,10.13,0,0,0,3.61,3.7A9.984,9.984,0,0,0,11.5,21.537a1.469,1.469,0,0,0,1.182-.446,2.976,2.976,0,0,0,.435-2l0-.038a6.868,6.868,0,0,1,4.566-6.494l.006,0a7.891,7.891,0,0,1,1.091-.282,6.634,6.634,0,0,1,2.719.078c.027-.3.041-.58.041-.856A10.048,10.048,0,0,0,11.5,1.463Zm8.428,12.173a5.363,5.363,0,0,0-5.355,5.347,3.478,3.478,0,0,1,.027.595c0,.158-.012.306-.028.452l6.176-6.317A4.732,4.732,0,0,0,19.928,13.636Z" transform="translate(2 2)"/><path class="c" d="M2.24,1.12A1.12,1.12,0,1,0,1.12,2.24,1.12,1.12,0,0,0,2.24,1.12" transform="translate(8.7 10.717)"/><path class="c" d="M2.24,1.12A1.12,1.12,0,1,0,1.12,2.24,1.12,1.12,0,0,0,2.24,1.12" transform="translate(16.06 10.717)"/><path class="c" d="M0,0A4.8,4.8,0,0,0,4.8,4.8,4.8,4.8,0,0,0,9.6,0Z" transform="translate(8.7 14.759)"/></g></svg>
