<svg xmlns="http://www.w3.org/2000/svg" xmlns:xlink="http://www.w3.org/1999/xlink" width="46.161" height="64.866" viewBox="0 0 46.161 64.866"><defs><style>.a,.b{stroke:rgba(0,0,0,0);}.a{fill:url(#a);}.b,.c{fill:#fff;}.d{fill:url(#b);}</style><linearGradient id="a" x1="0.5" y1="-0.146" x2="0.5" y2="1" gradientUnits="objectBoundingBox"><stop offset="0" stop-color="#46c3f4"/><stop offset="1" stop-color="#b27cf3"/></linearGradient><linearGradient id="b" y1="-2.787" y2="4.478" xlink:href="#a"/></defs><g transform="translate(-521.5 -79.633)"><path class="a" d="M44.307,56.785H40.885V.766A.724.724,0,0,0,40.142,0H5.019a.724.724,0,0,0-.743.766V56.785H.854A.815.815,0,0,0,0,57.547V63.1a.819.819,0,0,0,.854.766H44.307a.819.819,0,0,0,.854-.766V57.547A.815.815,0,0,0,44.307,56.785Z" transform="translate(522 80.133)"/><path class="b" d="M0,0H33.4V55.182H29.528V4.716a.85.85,0,0,0-.818-.842H4.693a.85.85,0,0,0-.818.842V55.182H0Z" transform="translate(527.879 81.737)"/><path class="c" d="M22.447,49.7H0V0H22.447Z" transform="translate(533.357 87.215)"/><path class="c" d="M41.954,3.875H0V0H41.954Z" transform="translate(523.603 138.522)"/><path class="d" d="M.8,8.545a.8.8,0,0,0,.8-.8V.8A.8.8,0,0,0,0,.8V7.744a.8.8,0,0,0,.8.8Z" transform="translate(535.094 105.018)"/></g></svg>