<svg xmlns="http://www.w3.org/2000/svg" xmlns:xlink="http://www.w3.org/1999/xlink" width="31" height="29.852" viewBox="0 0 31 29.852"><defs><style>.a{fill:none;}.b{clip-path:url(#a);}.c{fill:#7b46e4;}</style><clipPath id="a"><path class="a" d="M0,0H31V29.852H0Z"/></clipPath></defs><path class="a" d="M0,0H31V29.852H0Z"/><g class="b"><path class="c" d="M13.2,26.408a13.2,13.2,0,1,1,13-10.9l-.014.086-1.657,1.825-6.865,7.023-1.688,1.673-.088.018A13.24,13.24,0,0,1,13.2,26.408Zm0-24.728A11.5,11.5,0,0,0,2.488,17.416l0,.009a11.347,11.347,0,0,0,.671,1.408l.011.019A11.631,11.631,0,0,0,7.319,23.1,11.463,11.463,0,0,0,13.2,24.728a1.687,1.687,0,0,0,1.357-.512,3.417,3.417,0,0,0,.5-2.292l0-.044A7.886,7.886,0,0,1,20.3,14.423l.007,0a9.06,9.06,0,0,1,1.252-.324,7.617,7.617,0,0,1,3.122.09c.032-.344.048-.666.048-.983A11.537,11.537,0,0,0,13.2,1.68ZM22.88,15.656A6.157,6.157,0,0,0,16.732,21.8a3.993,3.993,0,0,1,.031.683c0,.182-.014.351-.032.519l7.091-7.253A5.433,5.433,0,0,0,22.88,15.656Z" transform="translate(2.296 1.722)"/><path class="c" d="M2.572,1.286A1.286,1.286,0,1,0,1.286,2.572,1.286,1.286,0,0,0,2.572,1.286" transform="translate(9.989 11.731)"/><path class="c" d="M2.572,1.286A1.286,1.286,0,1,0,1.286,2.572,1.286,1.286,0,0,0,2.572,1.286" transform="translate(18.439 11.731)"/><path class="c" d="M0,0A5.511,5.511,0,0,0,11.022,0Z" transform="translate(9.989 16.372)"/></g></svg>