<svg xmlns="http://www.w3.org/2000/svg" width="20" height="19.951" viewBox="0 0 20 19.951"><defs><style>.a,.b{fill:none;stroke:#47c3f4;stroke-linecap:round;stroke-miterlimit:10;}.a{stroke-width:0.96px;}.b{stroke-width:0.96px;}</style></defs><g transform="translate(0 0.46)"><path class="a" d="M1.414,4.474C.525,4.032.006,3.508,0,2.944-.006,1.344,4.1.026,9.184,0s9.21,1.248,9.216,2.848S14.3,5.767,9.216,5.792A24.113,24.113,0,0,1,3.45,5.184" transform="translate(0.48 6.617)"/><path class="a" d="M5.152,2.277a24.516,24.516,0,0,0-3.014,4.87C-.051,11.73-.659,16.011.781,16.7s4.39-2.47,6.579-7.053S10.157.786,8.717.094C8.192-.155,7.475.1,6.669.741" transform="translate(4.934 1.122)"/><path class="a" d="M1.993.5A1.081,1.081,0,0,0,0,1.161v.032a1.162,1.162,0,0,0,.16.467A1.083,1.083,0,0,0,1.993.5Z" transform="translate(1.815 10.423)"/><path class="a" d="M.354,1.883a1.31,1.31,0,0,1-.192-.224A1,1,0,0,1,0,1.191V1.159A1.083,1.083,0,0,1,1.878.347" transform="translate(9.732 1.516)"/><path class="a" d="M1.517,0a.689.689,0,0,1,.115.154A1.078,1.078,0,0,1,1.3,1.645,1.087,1.087,0,0,1,0,1.536" transform="translate(10.086 1.862)"/><ellipse class="b" cx="2.893" cy="9.203" rx="2.893" ry="9.203" transform="translate(2.29 3.318) rotate(-32.582)"/></g></svg>