<svg xmlns="http://www.w3.org/2000/svg" width="27.287" height="27.297" viewBox="0 0 27.287 27.297"><defs><style>.a,.b{fill:none;stroke:#1f1f60;stroke-linecap:round;stroke-miterlimit:10;stroke-width:1.5px;}.b{stroke-linejoin:round;}</style></defs><g transform="translate(0 0.067)"><circle class="a" cx="2.33" cy="2.33" r="2.33" transform="translate(15.27 7.44)"/><path class="b" d="M3.85,2.21C3.12,1.48,2.44.74,1.78,0L0,1.78c.66.74,1.36,1.48,2.08,2.21S3.54,5.41,4.29,6.07L6.07,4.29C5.31,3.62,4.57,2.93,3.85,2.21Z" transform="translate(4.62 16.55)"/><path class="b" d="M10.13.931a4.426,4.426,0,0,0-5.83.35L.42,5.161a4.928,4.928,0,0,0-.42.49l5.74.53Z" transform="translate(0.75 8.029)"/><path class="b" d="M5.25,0A4.416,4.416,0,0,1,4.9,5.83L1.02,9.71a4.928,4.928,0,0,1-.49.42L0,4.39Z" transform="translate(13.01 16.35)"/><path class="b" d="M20.82.2c-.48-.48-7.59-.44-11.99,3.97a21.509,21.509,0,0,0-2.36,2.8L0,14.713q1.41,1.68,3.02,3.3c1.08,1.08,2.18,2.08,3.3,3.02l7.74-6.47a21.509,21.509,0,0,0,2.8-2.36C21.26,7.793,21.3.693,20.82.2Z" transform="translate(5.45 0.747)"/><path class="b" d="M3.777,1.44a2.4,2.4,0,0,1-.6,1.53,2.452,2.452,0,0,1-2.9.52A2.428,2.428,0,0,1,.807.6,2.4,2.4,0,0,1,2.337,0" transform="translate(2.033 21.42)"/></g></svg>