<svg xmlns="http://www.w3.org/2000/svg" width="12" height="12" viewBox="0 0 12 12"><defs><style>.a{fill:#8f8faf;}.b{fill:none;stroke:#8f8faf;stroke-linecap:round;stroke-linejoin:round;stroke-miterlimit:10;}</style></defs><g transform="translate(0.5 0.5)"><path class="a" d="M.5,0h0A.5.5,0,0,1,1,.5V8A0,0,0,0,1,1,8H0A0,0,0,0,1,0,8V.5A.5.5,0,0,1,.5,0Z" transform="translate(2 1)"/><path class="a" d="M.5,0h0A.5.5,0,0,1,1,.5V6A0,0,0,0,1,1,6H0A0,0,0,0,1,0,6V.5A.5.5,0,0,1,.5,0Z" transform="translate(4 3)"/><path class="a" d="M.5,0h0A.5.5,0,0,1,1,.5V7A0,0,0,0,1,1,7H0A0,0,0,0,1,0,7V.5A.5.5,0,0,1,.5,0Z" transform="translate(6 2)"/><path class="a" d="M.5,0h0A.5.5,0,0,1,1,.5V4A0,0,0,0,1,1,4H0A0,0,0,0,1,0,4V.5A.5.5,0,0,1,.5,0Z" transform="translate(8 5)"/><path class="b" d="M0,0V11H11"/></g></svg>