<svg xmlns="http://www.w3.org/2000/svg" width="34.259" height="25.125" viewBox="0 0 34.259 25.125"><defs><style>.a{fill:none;stroke:#1f1f60;stroke-linecap:round;stroke-miterlimit:10;stroke-width:2px;}</style></defs><g transform="translate(0.259 1.011)"><path class="a" d="M.135,4.74a6,6,0,1,0,2.5-3.705A5.959,5.959,0,0,0,.135,4.74" transform="translate(5)"/><g transform="translate(0 12)"><path class="a" d="M21.234,10.77A10.735,10.735,0,0,0,0,8.5" transform="translate(0.929 0.344)"/></g><path class="a" d="M.088,3.159A4,4,0,1,0,1.753.689,4.02,4.02,0,0,0,.088,3.159" transform="translate(21 4)"/><path class="a" d="M13.736,8a8.176,8.176,0,0,0-1.319-4.488A7.415,7.415,0,0,0,1.812,1.385,7.624,7.624,0,0,0,0,3.188" transform="translate(19.264 12)"/></g></svg>