<svg xmlns="http://www.w3.org/2000/svg" width="24.75" height="27.63" viewBox="0 0 24.75 27.63"><defs><style>.a{fill:none;stroke:#1f1f60;stroke-linecap:round;stroke-miterlimit:10;stroke-width:1.5px;}</style></defs><g transform="translate(0)"><g transform="translate(17)"><path class="a" d="M.5,0V6.19" transform="translate(3.41 0.75)"/><path class="a" d="M0,.5H6.19" transform="translate(0.81 3.35)"/></g><path class="a" d="M0,.5H12.14" transform="translate(4.76 7.95)"/><path class="a" d="M0,.5H12.14" transform="translate(4.76 12.56)"/><path class="a" d="M0,.5H12.14" transform="translate(4.76 17.16)"/><path class="a" d="M0,.5H12.14" transform="translate(4.76 21.77)"/><path class="a" d="M20.16,7.17V21.49a1.551,1.551,0,0,1-1.55,1.55H1.55A1.551,1.551,0,0,1,0,21.49V1.55A1.551,1.551,0,0,1,1.55,0H12.93" transform="translate(0.75 3.84)"/></g></svg>