<svg xmlns="http://www.w3.org/2000/svg" width="12.524" height="17.531" viewBox="0 0 12.524 17.531"><defs><style>.a{fill:none;stroke:#7b46e4;stroke-linecap:round;stroke-miterlimit:10;stroke-width:1.5px;}</style></defs><g transform="translate(0.761 0.765)"><path class="a" d="M10.772,6.294H6.32a.229.229,0,0,1-.23-.249l.567-5.8A.232.232,0,0,0,6.233.1L.037,9.36a.224.224,0,0,0,.193.347H4.676a.229.229,0,0,1,.23.249l-.567,5.8a.232.232,0,0,0,.423.146l6.2-9.253A.225.225,0,0,0,10.772,6.294Z" transform="translate(0 0)"/></g></svg>