<svg xmlns="http://www.w3.org/2000/svg" width="28.94" height="20.771" viewBox="0 0 28.94 20.771"><defs><style>.a{fill:none;stroke:#1f1f60;stroke-linecap:round;stroke-miterlimit:10;stroke-width:1.5px;}</style></defs><g transform="translate(0.19 0.759)"><path class="a" d="M.112,3.95A5,5,0,1,0,2.195.862,4.966,4.966,0,0,0,.112,3.95" transform="translate(5)"/><g transform="translate(0 10)"><path class="a" d="M17.541,8.975a9.036,9.036,0,0,0-1.528-5.038A8.812,8.812,0,0,0,3.694,1.544,8.964,8.964,0,0,0,0,7.083" transform="translate(0.768 0.286)"/><path class="a" d="M.479,0a9.129,9.129,0,0,0-.2,1.762" transform="translate(0.289 7.377)"/></g><path class="a" d="M.077,2.764A3.5,3.5,0,1,0,1.534.6,3.517,3.517,0,0,0,.077,2.764" transform="translate(18 3)"/><path class="a" d="M12,6a5.589,5.589,0,0,0-1.13-3.366A6.915,6.915,0,0,0,1.78,1.039,6.18,6.18,0,0,0,0,2.685" transform="translate(16 10)"/></g></svg>