<svg xmlns="http://www.w3.org/2000/svg" width="28" height="27" viewBox="0 0 28 27"><defs><style>.a{fill:none;stroke:#1f1f60;stroke-linecap:round;stroke-miterlimit:10;stroke-width:1.2px;}</style></defs><g transform="translate(3 3)"><g transform="translate(0 5.6)"><path class="a" d="M8.248.072C7.688.024,7.128,0,6.56,0A19.549,19.549,0,0,0,0,1.128v7.88A6.56,6.56,0,0,0,12.992,10.3" transform="translate(0.608 0.016)"/><path class="a" d="M0,1.392a3.094,3.094,0,0,1,5.152-.024" transform="translate(4.584 10.312)"/><path class="a" d="M0,1.5a1.5,1.5,0,0,1,3.008,0" transform="translate(2.832 5.016)"/></g><g transform="translate(8.8)"><path class="a" d="M6.56,0A19.549,19.549,0,0,0,0,1.128v7.88a6.56,6.56,0,0,0,13.12,0V1.128A19.619,19.619,0,0,0,6.56,0Z" transform="translate(0.056 0.6)"/><path class="a" d="M5.152,0A3.086,3.086,0,0,1,2.568,1.392,3.1,3.1,0,0,1,0,.024" transform="translate(4.04 10.896)"/><g transform="translate(1.6 5.6)"><path class="a" d="M0,1.5a1.5,1.5,0,0,1,3.008,0" transform="translate(0.688)"/><path class="a" d="M0,1.5a1.5,1.5,0,0,1,3.008,0" transform="translate(6.328 0)"/></g></g></g></svg>