<svg xmlns="http://www.w3.org/2000/svg" width="31.97" height="26.54" viewBox="0 0 31.97 26.54"><defs><style>.a{fill:#1f1f60;}.b{fill:#fff;stroke:#fff;stroke-width:1.5px;}</style></defs><path class="a" d="M2.7,26.54A2.7,2.7,0,0,1,0,23.84V6.38a2.7,2.7,0,0,1,2.7-2.7H9.8L11.22.77A1.373,1.373,0,0,1,12.45,0h7.07a1.363,1.363,0,0,1,1.23.77L22.18,3.68h7.09a2.688,2.688,0,0,1,2.7,2.7V23.84a2.7,2.7,0,0,1-2.7,2.7Z"/><path class="b" d="M1.8,1.711A6,6,0,1,1,0,6.066,5.962,5.962,0,0,1,1.8,1.711" transform="translate(9.5 9)"/><path class="a" d="M1.2,1.141A4,4,0,1,1,0,4.044a3.975,3.975,0,0,1,1.2-2.9" transform="translate(11.5 11)"/></svg>