<svg xmlns="http://www.w3.org/2000/svg" width="33.03" height="27.664" viewBox="0 0 33.03 27.664"><defs><style>.a{fill:none;stroke:#1f1f60;stroke-linecap:round;stroke-miterlimit:10;stroke-width:1.5px;}</style></defs><g transform="translate(0.03 0.015)"><g transform="translate(0 5)"><path class="a" d="M16.213.41A10.529,10.529,0,1,1,5.543,0" transform="translate(0.747 2.09)"/><path class="a" d="M0,1.258a10.54,10.54,0,0,1,10.67.42" transform="translate(6.29 0.832)"/><path class="a" d="M4.01,0A10.478,10.478,0,0,1,5.07,8.11,10.5,10.5,0,0,1,0,14.53" transform="translate(2.2 2.13)"/><path class="a" d="M1.5,14.6A10.524,10.524,0,0,1,5.416,0" transform="translate(14.914 5.99)"/><path class="a" d="M5.6,0,0,20.28" transform="translate(8.47 1.21)"/></g><g transform="translate(21)"><path class="a" d="M.114,4.045A5.113,5.113,0,1,0,2.244.885a5.078,5.078,0,0,0-2.13,3.16" transform="translate(0.796 0.745)"/><path class="a" d="M6.5,1.16A5.128,5.128,0,0,1,0,0" transform="translate(3.34 1.44)"/><path class="a" d="M6.47,1.949A5.113,5.113,0,0,0,0,.629" transform="translate(1.9 8.341)"/></g></g></svg>