<svg xmlns="http://www.w3.org/2000/svg" width="18" height="17" viewBox="0 0 18 17"><defs><style>.a{fill:#1f1f60;}</style></defs><path class="a" d="M16.22,0H1.54A1.543,1.543,0,0,0,0,1.55v.92A1.541,1.541,0,0,0,1.54,4.01H16.21a1.541,1.541,0,0,0,1.54-1.54V1.55A1.528,1.528,0,0,0,16.22,0Z" transform="translate(0 12.98)"/><path class="a" d="M16.22,0H1.54A1.541,1.541,0,0,0,0,1.54v.92A1.541,1.541,0,0,0,1.54,4H16.21a1.541,1.541,0,0,0,1.54-1.54V1.54A1.526,1.526,0,0,0,16.22,0Z" transform="translate(0 6.49)"/><path class="a" d="M16.22,0H1.54A1.541,1.541,0,0,0,0,1.54v.92A1.541,1.541,0,0,0,1.54,4H16.21a1.541,1.541,0,0,0,1.54-1.54V1.54A1.526,1.526,0,0,0,16.22,0Z"/></svg>