<svg xmlns="http://www.w3.org/2000/svg" width="26.22" height="26.22" viewBox="0 0 26.22 26.22"><defs><style>.a{fill:#1f1f60;}.b{fill:none;stroke:#1f1f60;stroke-linecap:round;stroke-linejoin:round;stroke-miterlimit:10;stroke-width:1.5px;}</style></defs><circle class="a" cx="7.26" cy="7.26" r="7.26" transform="translate(5.85 5.85)"/><circle class="b" cx="12.36" cy="12.36" r="12.36" transform="translate(0.75 0.75)"/><g transform="translate(12 3)"><path class="b" d="M.5,1.9V0" transform="translate(0.61 17.48)"/><path class="b" d="M.5,1.9V0" transform="translate(0.61 0.84)"/></g><g transform="translate(3 12)"><path class="b" d="M1.9.5H0" transform="translate(17.48 0.61)"/><path class="b" d="M1.9.5H0" transform="translate(0.84 0.61)"/></g><g transform="translate(6 6)"><path class="b" d="M1.35,1.35,0,0" transform="translate(12.32 12.32)"/><path class="b" d="M1.34,1.34,0,0" transform="translate(0.56 0.56)"/></g><g transform="translate(6 6)"><path class="b" d="M1.35,0,0,1.34" transform="translate(12.32 0.56)"/><path class="b" d="M1.34,0,0,1.35" transform="translate(0.56 12.32)"/></g></svg>