<svg xmlns="http://www.w3.org/2000/svg" width="28.04" height="28.04" viewBox="0 0 28.04 28.04"><defs><style>.a{fill:none;stroke:#1f1f60;stroke-linecap:round;stroke-linejoin:round;stroke-miterlimit:10;stroke-width:1.5px;}</style></defs><path class="a" d="M26.52,14.17a.759.759,0,0,1-.6.74l-1.55.31a1.475,1.475,0,0,0-1.07.88l-.94,2.26a1.465,1.465,0,0,0,.14,1.39l.88,1.32a.757.757,0,0,1-.09.95L22.01,23.3a.755.755,0,0,1-.95.09l-1.32-.88a1.522,1.522,0,0,0-1.39-.14l-2.26.94a1.449,1.449,0,0,0-.88,1.07l-.31,1.55a.751.751,0,0,1-.74.6H12.35a.759.759,0,0,1-.74-.6l-.31-1.55a1.475,1.475,0,0,0-.88-1.07l-2.26-.94a1.474,1.474,0,0,0-1.38.13l-1.32.88a.757.757,0,0,1-.95-.09L3.23,22.01a.755.755,0,0,1-.09-.95l.88-1.32a1.522,1.522,0,0,0,.14-1.39l-.94-2.26a1.449,1.449,0,0,0-1.07-.88L.6,14.9a.751.751,0,0,1-.6-.74V12.35a.759.759,0,0,1,.6-.74l1.55-.31a1.475,1.475,0,0,0,1.07-.88l.94-2.26a1.537,1.537,0,0,0-.15-1.38L3.13,5.46a.757.757,0,0,1,.1-.94L4.51,3.24a.744.744,0,0,1,.94-.1l1.32.88a1.522,1.522,0,0,0,1.39.14l2.26-.94a1.449,1.449,0,0,0,.88-1.07L11.61.6a.751.751,0,0,1,.74-.6h1.81a.759.759,0,0,1,.74.6l.31,1.55a1.475,1.475,0,0,0,.88,1.07l2.26.94a1.465,1.465,0,0,0,1.39-.14l1.32-.88a.757.757,0,0,1,.95.09l1.28,1.28a.755.755,0,0,1,.09.95L22.5,6.78a1.522,1.522,0,0,0-.14,1.39l.94,2.26a1.449,1.449,0,0,0,1.07.88l1.55.31a.751.751,0,0,1,.6.74Z" transform="translate(0.77 0.76)"/><circle class="a" cx="3.22" cy="3.22" r="3.22" transform="translate(10.8 10.8)"/></svg>