<svg xmlns="http://www.w3.org/2000/svg" width="15.9" height="13" viewBox="0 0 15.9 13"><defs><style>.a{fill:#47c3f4;}</style></defs><path class="a" d="M15.833,5.389,9.32.06c-.159-.16-.632.025-.632.254l0,2.731c0,.094,0,.393,0,.393s-.289.014-.456.013A8.952,8.952,0,0,0,2.247,6.126,7.409,7.409,0,0,0,.1,10.37a9.628,9.628,0,0,0-.026,2.6A8.278,8.278,0,0,1,6.093,8.346,9.354,9.354,0,0,1,8.278,8.1c.112,0,.415-.005.415-.005s0,.974,0,1.12l-.015,1.782c0,.229.46.375.619.214L15.815,5.9A.467.467,0,0,0,15.833,5.389Z" transform="translate(0 0)"/></svg>