<svg xmlns="http://www.w3.org/2000/svg" width="16.85" height="20.49" viewBox="0 0 16.85 20.49"><defs><style>.a{opacity:0.3;}.b{fill:none;stroke:#1f1f60;stroke-linecap:round;stroke-miterlimit:10;stroke-width:1.5px;}.c{fill:#1f1f60;}</style></defs><g class="a" transform="translate(0.75 0.75)"><path class="b" d="M13.82,0H1.54A1.541,1.541,0,0,0,0,1.54V17.45a1.541,1.541,0,0,0,1.54,1.54H13.81a1.541,1.541,0,0,0,1.54-1.54V1.54A1.526,1.526,0,0,0,13.82,0Z" transform="translate(0 0)"/><path class="c" d="M7.66,0H1.54A1.541,1.541,0,0,0,0,1.54v8.3a1.541,1.541,0,0,0,1.54,1.54H7.66A1.541,1.541,0,0,0,9.2,9.84V1.55A1.53,1.53,0,0,0,7.66,0Z" transform="translate(3.08 3.8)"/></g></svg>