<svg xmlns="http://www.w3.org/2000/svg" width="32.5" height="27.22" viewBox="0 0 32.5 27.22"><defs><style>.a{opacity:0.3;}.b{fill:none;stroke:#1f1f60;stroke-linecap:round;stroke-miterlimit:10;stroke-width:2px;}</style></defs><g transform="translate(0.25 0.25)"><g class="a"><path class="b" d="M22.32,0H6.79A2.748,2.748,0,0,0,4.04,2.75V20.48A4.728,4.728,0,0,1,0,25.15v.07H18.87a6.188,6.188,0,0,0,6.19-6.19V2.75A2.734,2.734,0,0,0,22.32,0Z" transform="translate(6.19 0.75)"/><path class="b" d="M.04.01A3.313,3.313,0,0,0,0,.56V11.93a4.74,4.74,0,1,0,9.48,0V.56A3.435,3.435,0,0,0,9.44,0H.04Z" transform="translate(0.75 9.29)"/><path class="b" d="M0,.5H11.32" transform="translate(15.09 16.13)"/><path class="b" d="M0,.5H11.32" transform="translate(15.09 19.3)"/><path class="b" d="M9.04,0H2.3A2.3,2.3,0,0,0,0,2.3V5.65a2.3,2.3,0,0,0,2.3,2.3H9.04a2.3,2.3,0,0,0,2.3-2.3V2.3A2.307,2.307,0,0,0,9.04,0Z" transform="translate(15.08 5.11)"/></g></g></svg>