<svg xmlns="http://www.w3.org/2000/svg" width="25.11" height="27.7" viewBox="0 0 25.11 27.7"><defs><style>.a{fill:none;stroke:#1f1f60;stroke-linecap:round;stroke-miterlimit:10;stroke-width:1.5px;}</style></defs><path class="a" d="M.04,0C.03.12,0,.23,0,.35A3.16,3.16,0,0,0,3.16,3.51,3.167,3.167,0,0,0,6.32.35,2.085,2.085,0,0,0,6.28,0Z" transform="translate(9.39 23.44)"/><path class="a" d="M14.58,3.21V2.78a2.78,2.78,0,1,0-5.56,0v.43a9.048,9.048,0,0,0-6.24,8.6v5.56a.226.226,0,0,1-.23.23,2.55,2.55,0,0,0,0,5.1H21.06a2.55,2.55,0,1,0,0-5.1.226.226,0,0,1-.23-.23V13.34l-.016-1.592A9.85,9.85,0,0,0,14.58,3.21Z" transform="translate(0.75 0.75)"/></svg>