<svg xmlns="http://www.w3.org/2000/svg" width="18" height="18.043" viewBox="0 0 18 18.043"><defs><style>.a,.b{fill:none;stroke:#47c3f4;stroke-linecap:round;stroke-miterlimit:10;stroke-width:0.96px;}.b{stroke-linejoin:round;}</style></defs><g transform="translate(0 0.043)"><circle class="a" cx="1.491" cy="1.491" r="1.491" transform="translate(9.773 4.762)"/><path class="b" d="M2.464,1.414C2,.947,1.562.474,1.139,0L0,1.139c.422.474.87.947,1.331,1.414s.934.909,1.414,1.331L3.885,2.746C3.4,2.317,2.925,1.875,2.464,1.414Z" transform="translate(2.957 10.592)"/><path class="b" d="M6.483.6A2.833,2.833,0,0,0,2.752.82L.269,3.3A3.154,3.154,0,0,0,0,3.617l3.674.339Z" transform="translate(0.48 5.139)"/><path class="b" d="M3.36,0a2.826,2.826,0,0,1-.224,3.731L.653,6.214a3.154,3.154,0,0,1-.314.269L0,2.81Z" transform="translate(8.326 10.464)"/><path class="b" d="M13.325.13C13.018-.178,8.467-.152,5.651,2.67a13.766,13.766,0,0,0-1.51,1.792L0,9.416q.9,1.075,1.933,2.112c.691.691,1.4,1.331,2.112,1.933L9,9.32A13.766,13.766,0,0,0,10.79,7.81C13.606,4.987,13.632.443,13.325.13Z" transform="translate(3.488 0.478)"/><path class="b" d="M2.417.922a1.538,1.538,0,0,1-.384.979,1.569,1.569,0,0,1-1.856.333A1.554,1.554,0,0,1,.517.384,1.538,1.538,0,0,1,1.5,0" transform="translate(1.301 13.709)"/></g></svg>