<svg xmlns="http://www.w3.org/2000/svg" width="25.414" height="27.022" viewBox="0 0 25.414 27.022"><defs><style>.a{fill:none;stroke:#7b46e4;stroke-linecap:round;stroke-miterlimit:10;stroke-width:2px;}</style></defs><g transform="translate(0.253)"><g transform="translate(0 1)"><path class="a" d="M23,11.43,11.511,23.009a6.7,6.7,0,0,1-9.535,0,6.831,6.831,0,0,1,0-9.61l8.119-8.183,1.511-1.522L13.72,1.563a5.264,5.264,0,0,1,7.487,0,5.365,5.365,0,0,1,0,7.545l-9.082,9.153-.7.7-2.1,2.112a3.355,3.355,0,0,1-4.777,0,3.427,3.427,0,0,1,0-4.814l6.033-6.08" transform="translate(0.748 0.023)"/></g></g></svg>