<svg xmlns="http://www.w3.org/2000/svg" width="18.085" height="18" viewBox="0 0 18.085 18"><defs><style>.a{fill:none;stroke:#47c3f4;stroke-linecap:round;stroke-linejoin:round;stroke-miterlimit:10;stroke-width:0.96px;}</style></defs><g transform="translate(0.085)"><path class="a" d="M2.816,13.971,0,0" transform="translate(0.48 3.13)"/><g transform="translate(1.92)"><path class="a" d="M0,.218Q.806,4.23,1.606,8.25a8.182,8.182,0,0,0,3.622-.218L3.622,0A8.089,8.089,0,0,1,0,.218Z" transform="translate(0.25 3.046)"/><path class="a" d="M0,.358,1.606,8.39a8.176,8.176,0,0,1,3.706-.243Q4.506,4.134,3.706.115A8.182,8.182,0,0,0,0,.358Z" transform="translate(9.907 0.48)"/><path class="a" d="M0,2.208,1.606,10.24C3.654,9.69,5.6,8.6,7.642,8.032L6.035,0C3.994.563,2.048,1.658,0,2.208Z" transform="translate(3.872 0.838)"/></g></g></svg>