<svg xmlns="http://www.w3.org/2000/svg" width="30" height="25" viewBox="0 0 30 25"><defs><style>.a{fill:none;stroke:#7b46e4;stroke-linecap:round;stroke-linejoin:round;stroke-miterlimit:10;stroke-width:1.5px;}</style></defs><g transform="translate(1 1)"><path class="a" d="M1.807,1.708A6,6,0,1,1,0,6.066,5.969,5.969,0,0,1,1.807,1.708" transform="translate(8 7)"/><path class="a" d="M25.635,3.189h-6.21L18.173.667A1.205,1.205,0,0,0,17.1,0H10.9A1.205,1.205,0,0,0,9.827.667L8.574,3.189H2.365A2.354,2.354,0,0,0,0,5.529V20.66A2.354,2.354,0,0,0,2.365,23H25.635A2.354,2.354,0,0,0,28,20.66V5.529A2.343,2.343,0,0,0,25.635,3.189Z"/></g></svg>