<svg xmlns="http://www.w3.org/2000/svg" width="17.068" height="17.068" viewBox="0 0 17.068 17.068"><defs><style>.a{fill:#47c3f4;}.b,.c{fill:none;stroke:#47c3f4;stroke-linecap:round;stroke-linejoin:round;stroke-miterlimit:10;}.c{stroke-width:0.975px;}</style></defs><g transform="translate(0.012 0.013)"><circle class="a" cx="4.719" cy="4.719" r="4.719" transform="translate(3.803 3.803)"/><circle class="b" cx="8.034" cy="8.034" r="8.034" transform="translate(0.487 0.487)"/><g transform="translate(7.8 1.95)"><path class="c" d="M.325,1.235V0" transform="translate(0.396 11.362)"/><path class="c" d="M.325,1.235V0" transform="translate(0.396 0.546)"/></g><g transform="translate(1.95 7.8)"><path class="c" d="M1.235.325H0" transform="translate(11.362 0.396)"/><path class="c" d="M1.235.325H0" transform="translate(0.546 0.396)"/></g><g transform="translate(3.9 3.9)"><path class="c" d="M.877.877,0,0" transform="translate(8.008 8.008)"/><path class="c" d="M.871.871,0,0" transform="translate(0.364 0.364)"/></g><g transform="translate(3.9 3.9)"><path class="c" d="M.877,0,0,.871" transform="translate(8.008 0.364)"/><path class="c" d="M.871,0,0,.877" transform="translate(0.364 8.008)"/></g></g></svg>