<svg xmlns="http://www.w3.org/2000/svg" width="21.019" height="19" viewBox="0 0 21.019 19"><defs><style>.a{fill:none;stroke:#47c3f4;stroke-linecap:round;stroke-miterlimit:10;stroke-width:0.96px;}</style></defs><g transform="translate(0.019)"><g transform="translate(0 1)"><g transform="translate(0 3.2)"><path class="a" d="M10.377.262A6.739,6.739,0,1,1,3.548,0" transform="translate(0.478 1.338)"/><path class="a" d="M0,.805a6.746,6.746,0,0,1,6.829.269" transform="translate(4.026 0.532)"/><path class="a" d="M2.566,0a6.706,6.706,0,0,1,.678,5.19A6.718,6.718,0,0,1,0,9.3" transform="translate(1.408 1.363)"/><path class="a" d="M.957,9.344A6.735,6.735,0,0,1,3.466,0" transform="translate(9.545 3.834)"/><path class="a" d="M3.584,0,0,12.979" transform="translate(5.421 0.774)"/></g><g transform="translate(13.44)"><path class="a" d="M.073,2.589A3.272,3.272,0,1,0,1.436.567,3.25,3.25,0,0,0,.073,2.589" transform="translate(0.51 0.477)"/><path class="a" d="M4.16.742A3.282,3.282,0,0,1,0,0" transform="translate(2.138 0.922)"/><path class="a" d="M4.141,1.247A3.272,3.272,0,0,0,0,.4" transform="translate(1.216 5.338)"/></g></g></g></svg>